<svg xmlns="http://www.w3.org/2000/svg" version="1.1" xmlns:xlink="http://www.w3.org/1999/xlink" xmlns:svgjs="http://svgjs.com/svgjs" width="1440" height="560" preserveAspectRatio="none" viewBox="0 0 1440 560"><g mask="url(&quot;#SvgjsMask1006&quot;)" fill="none"><path d="M-142.28 454.75C-25.94 454.95 87.75 524.75 317.78 524.75 547.8 524.75 545.81 454.49 777.83 454.75 1009.86 455.01 1113.36 642.52 1237.89 646.3" stroke="rgba(51,121,194,0.58)" stroke-width="2"></path><path d="M-183.91 256.13C-1.48 260.66 225.23 513.58 496.95 519.33 768.67 525.08 748 627.31 837.38 628.64" stroke="rgba(51,121,194,0.58)" stroke-width="2"></path><path d="M-248.89 350.22C-145.19 350.47-44.46 420.22 159.98 420.22 364.41 420.22 361.04 349.61 568.84 350.22 776.64 350.83 861.94 562.52 977.71 569.28" stroke="rgba(51,121,194,0.58)" stroke-width="2"></path><path d="M-129.78 448.67C46.51 447.97 297.19 307.7 561.34 308.67 825.49 309.64 788.13 625.3 906.9 652.91" stroke="rgba(51,121,194,0.58)" stroke-width="2"></path><path d="M-216.68 447.06C-114.37 447.32-15.07 517.06 186.54 517.06 388.15 517.06 386.36 446.82 589.76 447.06 793.16 447.3 882.88 620.94 992.98 624.83" stroke="rgba(51,121,194,0.58)" stroke-width="2"></path></g><defs><mask id="SvgjsMask1006"><rect width="1440" height="560" fill="#ffffff"></rect></mask></defs></svg>